<?xml version="1.0" encoding="utf-8"?>
<!-- Generator: Adobe Illustrator 16.0.0, SVG Export Plug-In . SVG Version: 6.00 Build 0)  -->
<!DOCTYPE svg PUBLIC "-//W3C//DTD SVG 1.1//EN" "http://www.w3.org/Graphics/SVG/1.1/DTD/svg11.dtd">
<svg version="1.1" id="Layer_1" xmlns="http://www.w3.org/2000/svg" xmlns:xlink="http://www.w3.org/1999/xlink" x="0px" y="0px"
	 width="640px" height="480px" viewBox="0 0 640 480" enable-background="new 0 0 640 480" xml:space="preserve">
<g>
	<path fill-rule="evenodd" clip-rule="evenodd" fill="#BE2239" d="M352.9,479.817c-19.862,0.015-39.725,0.025-59.587,0.039
		c0.034-61.602-0.032-123.204,0.246-184.806c0.03-6.582-1.781-7.677-7.041-7.666c-92.854,0.181-185.708,0.134-278.563,0.121
		c-2.492-0.002-4.985-0.166-7.478-0.253c0-28.563,0-57.124,0-85.686c1.42,0.228,2.841,0.654,4.262,0.654
		c94.465,0.032,188.93,0.006,283.394,0.109c3.893,0.005,5.378-0.955,5.365-5.831c-0.169-65.37-0.156-130.74-0.188-196.109
		c19.863,0.011,39.726,0.021,59.589,0.031c-0.004,64.706,0.069,129.414-0.136,194.12c-0.02,6.09,1.061,7.89,6.714,7.875
		c91.62-0.232,183.241-0.161,274.862-0.189c2.049,0,4.172,0.51,6.138-0.661c0,28.562,0,57.123,0,85.686
		c-2.489,0.087-4.982,0.251-7.473,0.251c-91.344,0.015-182.688,0.056-274.03-0.112c-4.86-0.008-6.226,1.335-6.207,7.011
		C352.96,356.206,352.896,418.011,352.9,479.817z"/>
	<path fill-rule="evenodd" clip-rule="evenodd" fill="#F9F8FB" d="M293.311,0.391c0.032,65.37,0.019,130.74,0.188,196.109
		c0.013,4.875-1.472,5.835-5.365,5.831c-94.464-0.104-188.929-0.078-283.394-0.109c-1.42,0-2.841-0.427-4.262-0.654
		c0-9.52,0-19.041,0-28.561c1.011,0.204,2.022,0.585,3.033,0.586c49.577,0.03,99.154,0.033,148.732-0.01
		c1.048-0.002,2.598,0.749,3.009-1.638c-16.951-12.295-33.925-24.66-50.946-36.941C69.709,110.041,35.088,85.125,0.478,60.189
		c0-10.473,0-20.945,0-31.417c1.99,1.229,4.045,2.338,5.96,3.703c59.391,42.342,118.764,84.717,178.168,127.034
		c1.893,1.349,3.557,3.432,6.038,3.434c14.261,0.019,28.521,0.01,43.291,0.01c-1.582-3.119-3.832-3.914-5.656-5.205
		C173.005,118.614,117.672,79.592,62.417,40.427C43.738,27.187,24.673,14.644,6.539,0.411c15.002,0.01,30.006,0.02,45.009,0.029
		c0.708,0.532,1.417,1.065,2.125,1.597C54.834,3,55.955,4.04,57.166,4.916c70.302,50.826,140.609,101.642,210.939,152.414
		c1.483,1.071,2.712,3.058,5.434,2.352c0-2.448,0-5.008,0-7.569c0-46.352,0.009-92.704-0.018-139.056
		C273.52,9.271,273.28,5.485,273.15,1.7c0.31-0.348,0.452-0.771,0.426-1.266C280.154,0.419,286.732,0.405,293.311,0.391z"/>
	<path fill-rule="evenodd" clip-rule="evenodd" fill="#F9F8FA" d="M640.478,201.567c-1.966,1.171-4.089,0.66-6.138,0.661
		c-91.621,0.028-183.242-0.043-274.862,0.189c-5.653,0.014-6.733-1.786-6.714-7.875c0.205-64.706,0.132-129.414,0.136-194.12
		c4.827,0.004,9.653,0.008,14.482,0.012c-0.026,0.497,0.115,0.922,0.425,1.273c-0.129,1.409-0.37,2.819-0.37,4.229
		c-0.02,49.718-0.022,99.436,0.002,149.154c0,1.592-0.413,3.312,0.664,4.816c2.354,0.421,3.736-1.75,5.391-2.942
		c38.479-27.713,76.929-55.48,115.354-83.296c32.629-23.62,65.22-47.315,97.827-70.977c0.91-0.751,1.824-1.502,2.736-2.253
		c15.047-0.012,30.093-0.023,45.137-0.036c-2.17,1.771-4.26,3.693-6.523,5.292c-71.899,50.822-143.818,101.61-215.72,152.429
		c-1.74,1.229-3.921,2.004-5.134,4.845c14.138,0,27.668-0.102,41.198,0.08c2.964,0.04,5.158-1.409,7.441-3.037
		c40.356-28.796,80.688-57.637,121.077-86.375c21.146-15.047,42.39-29.916,63.591-44.864c0,10.472,0,20.945,0,31.417
		c-40.547,29.27-81.097,58.535-121.636,87.813c-11.118,8.029-22.21,16.101-34.692,25.154c3.301,0.239,4.876,0.453,6.452,0.454
		c48.323,0.017,96.646,0.02,144.969-0.012c1.636-0.001,3.271-0.385,4.907-0.592C640.478,182.527,640.478,192.048,640.478,201.567z"
		/>
	<path fill-rule="evenodd" clip-rule="evenodd" fill="#F8F6F8" d="M0.478,287.253c2.493,0.087,4.986,0.251,7.478,0.253
		c92.854,0.013,185.708,0.06,278.563-0.121c5.26-0.011,7.071,1.084,7.041,7.666c-0.278,61.602-0.212,123.204-0.246,184.806
		c-6.579-0.014-13.158-0.028-19.738-0.041c0.027-0.498-0.115-0.922-0.425-1.271c0.125-0.934,0.358-1.868,0.358-2.8
		c0.019-50.632,0.023-101.262-0.009-151.891c0-1.256,0.551-2.929-1.44-3.734c-0.874,0.592-1.93,1.267-2.952,2.005
		c-46.289,33.441-92.595,66.855-138.855,100.352c-25.568,18.512-51.061,37.163-76.586,55.75c-0.708,0.527-1.416,1.056-2.124,1.579
		c-15,0.012-30,0.021-45,0.028c1.47-1.269,2.859-2.683,4.418-3.784c66.957-47.313,133.932-94.595,200.898-141.894
		c7.313-5.166,14.586-10.407,21.878-15.613c-13.128-1.255-25.935-1.112-38.735-1.341c-3.929-0.07-7.174,1.111-10.458,3.465
		C144.065,349.659,103.557,378.595,63,407.446c-20.783,14.782-41.678,29.362-62.523,44.032c0-10.471,0-20.943,0-31.417
		c1.791-1.169,3.625-2.26,5.365-3.519c48.447-35.057,96.887-70.125,145.317-105.209c1.466-1.063,2.831-2.305,4.408-3.597
		c-1.943-1.654-3.639-1.072-5.209-1.075c-48.324-0.035-96.648-0.035-144.971-0.003c-1.637,0.001-3.273,0.382-4.91,0.586
		C0.478,300.58,0.478,293.916,0.478,287.253z"/>
	<path fill-rule="evenodd" clip-rule="evenodd" fill="#F8F5F8" d="M352.9,479.817c-0.005-61.807,0.06-123.611-0.133-185.415
		c-0.019-5.676,1.347-7.019,6.207-7.011c91.342,0.168,182.687,0.127,274.03,0.112c2.49,0,4.983-0.164,7.473-0.251
		c0,6.663,0,13.327,0,19.992c-1.011-0.201-2.021-0.578-3.034-0.579c-49.568-0.029-99.139-0.032-148.707,0.011
		c-1.044,0.001-2.607-0.751-2.963,1.604c11.174,8.11,22.37,16.269,33.593,24.372c40.367,29.146,80.741,58.275,121.111,87.408
		c0,10.474,0,20.946,0,31.417c-1.982-1.253-4.019-2.401-5.938-3.768c-59.23-42.215-118.445-84.454-177.683-126.65
		c-2.078-1.48-3.931-3.727-6.6-3.735c-14.238-0.051-28.479-0.023-44.424-0.023c2.971,2.233,4.436,3.398,5.952,4.469
		c65.545,46.308,131.113,92.568,196.611,138.958c8.794,6.229,17.983,11.768,26.154,19.114c-15.046-0.011-30.09-0.022-45.137-0.033
		c-0.917-0.751-1.838-1.505-2.756-2.254c-1.011-0.826-1.987-1.715-3.037-2.472c-70.56-50.999-141.12-101.987-211.698-152.948
		c-1.157-0.835-2.148-2.395-3.941-1.688c-1.086,2.406-0.526,5.048-0.529,7.582c-0.039,45.433-0.04,90.867-0.012,136.302
		c0.002,4.738,0.237,9.48,0.365,14.219c-0.31,0.349-0.451,0.771-0.424,1.265C362.556,479.817,357.727,479.817,352.9,479.817z"/>
	<path fill-rule="evenodd" clip-rule="evenodd" fill="#2D3077" d="M0.478,60.189c34.611,24.936,69.232,49.852,103.828,74.814
		c17.021,12.281,33.996,24.646,50.946,36.941c-0.411,2.387-1.96,1.636-3.009,1.638c-49.578,0.043-99.155,0.04-148.732,0.01
		c-1.011,0-2.021-0.382-3.033-0.586C0.478,135.4,0.478,97.795,0.478,60.189z"/>
	<path fill-rule="evenodd" clip-rule="evenodd" fill="#2D3077" d="M0.478,307.245c1.636-0.204,3.272-0.585,4.91-0.586
		c48.323-0.032,96.647-0.032,144.971,0.003c1.57,0.003,3.266-0.579,5.209,1.075c-1.577,1.292-2.942,2.533-4.408,3.597
		c-48.431,35.084-96.87,70.152-145.317,105.209c-1.741,1.259-3.575,2.35-5.365,3.519C0.478,382.458,0.478,344.851,0.478,307.245z"/>
	<path fill-rule="evenodd" clip-rule="evenodd" fill="#2D3077" d="M640.478,173.006c-1.636,0.207-3.271,0.591-4.907,0.592
		c-48.322,0.032-96.646,0.029-144.969,0.012c-1.576-0.001-3.151-0.215-6.452-0.454c12.482-9.053,23.574-17.125,34.692-25.154
		c40.539-29.279,81.089-58.544,121.636-87.813C640.478,97.795,640.478,135.4,640.478,173.006z"/>
	<path fill-rule="evenodd" clip-rule="evenodd" fill="#2D3077" d="M640.478,420.062c-40.37-29.133-80.744-58.263-121.111-87.408
		c-11.223-8.104-22.419-16.262-33.593-24.372c0.355-2.355,1.919-1.604,2.963-1.604c49.568-0.043,99.139-0.04,148.707-0.011
		c1.013,0.001,2.023,0.378,3.034,0.579C640.478,344.851,640.478,382.458,640.478,420.062z"/>
	<path fill-rule="evenodd" clip-rule="evenodd" fill="#BE223A" d="M6.539,0.411c18.135,14.233,37.199,26.776,55.878,40.017
		c55.255,39.165,110.588,78.187,165.861,117.319c1.824,1.292,4.074,2.086,5.656,5.205c-14.769,0-29.03,0.009-43.291-0.01
		c-2.48-0.002-4.145-2.085-6.038-3.434C125.202,117.191,65.828,74.816,6.438,32.474c-1.915-1.365-3.97-2.474-5.96-3.703
		c0-9.52,0-19.041,0-28.562C2.498,0.277,4.519,0.344,6.539,0.411z"/>
	<path fill-rule="evenodd" clip-rule="evenodd" fill="#BE223A" d="M640.478,28.771c-21.201,14.948-42.444,29.817-63.591,44.864
		c-40.389,28.738-80.721,57.579-121.077,86.375c-2.283,1.628-4.478,3.077-7.441,3.037c-13.53-0.182-27.061-0.08-41.198-0.08
		c1.213-2.84,3.394-3.615,5.134-4.845c71.901-50.819,143.82-101.606,215.72-152.429c2.264-1.599,4.354-3.521,6.523-5.292
		c1.978-0.064,3.955-0.128,5.931-0.192C640.478,9.73,640.478,19.251,640.478,28.771z"/>
	<path fill-rule="evenodd" clip-rule="evenodd" fill="#BE223A" d="M0.478,451.479c20.845-14.67,41.74-29.25,62.523-44.032
		c40.556-28.852,81.064-57.787,121.542-86.779c3.284-2.354,6.529-3.535,10.458-3.465c12.801,0.229,25.607,0.086,38.735,1.341
		c-7.292,5.206-14.564,10.447-21.878,15.613c-66.966,47.299-133.941,94.58-200.898,141.894c-1.559,1.102-2.949,2.516-4.418,3.784
		c-2.021,0.07-4.042,0.137-6.063,0.206C0.478,470.521,0.478,461.002,0.478,451.479z"/>
	<path fill-rule="evenodd" clip-rule="evenodd" fill="#BE223A" d="M634.552,479.843c-8.171-7.347-17.36-12.886-26.154-19.114
		c-65.498-46.39-131.066-92.65-196.611-138.958c-1.517-1.07-2.981-2.235-5.952-4.469c15.945,0,30.186-0.027,44.424,0.023
		c2.669,0.009,4.521,2.255,6.6,3.735c59.237,42.196,118.452,84.436,177.683,126.65c1.919,1.366,3.955,2.515,5.938,3.768
		c0,9.523,0,19.042,0,28.562C638.502,479.977,636.527,479.91,634.552,479.843z"/>
	<path fill-rule="evenodd" clip-rule="evenodd" fill="#2D3077" d="M586.674,2.692c-32.607,23.662-65.198,47.356-97.827,70.977
		c-38.425,27.816-76.875,55.583-115.354,83.296c-1.654,1.191-3.037,3.363-5.391,2.942c-1.077-1.505-0.664-3.225-0.664-4.816
		c-0.024-49.718-0.021-99.436-0.002-149.154c0-1.41,0.241-2.82,0.37-4.229c0.457-0.439,0.914-0.878,1.37-1.316
		c10.181-0.088,20.361-0.247,30.542-0.251c59.447-0.023,118.894-0.015,178.342,0c2.488,0,4.979,0.163,7.468,0.25
		C585.91,1.157,586.29,1.924,586.674,2.692z"/>
	<path fill-rule="evenodd" clip-rule="evenodd" fill="#2D3077" d="M273.15,1.7c0.13,3.786,0.37,7.571,0.372,11.357
		c0.026,46.352,0.018,92.704,0.018,139.056c0,2.561,0,5.121,0,7.569c-2.722,0.706-3.951-1.281-5.434-2.352
		C197.775,106.558,127.468,55.742,57.166,4.916C55.955,4.04,54.834,3,53.671,2.036c0.583-0.549,1.167-1.097,1.751-1.645
		c10.181-0.087,20.361-0.246,30.542-0.25c59.45-0.023,118.9-0.015,178.35,0c2.49,0,4.979,0.164,7.47,0.251
		C272.239,0.827,272.695,1.264,273.15,1.7z"/>
	<path fill-rule="evenodd" clip-rule="evenodd" fill="#2D3582" d="M586.674,2.692c-0.384-0.768-0.764-1.535-1.146-2.303
		c1.294,0.017,2.588,0.033,3.882,0.049C588.498,1.19,587.584,1.941,586.674,2.692z"/>
	<path fill-rule="evenodd" clip-rule="evenodd" fill="#2D3582" d="M55.422,0.391c-0.584,0.548-1.168,1.096-1.751,1.645
		c-0.707-0.531-1.416-1.064-2.124-1.596C52.839,0.423,54.13,0.407,55.422,0.391z"/>
	<path fill-rule="evenodd" clip-rule="evenodd" fill="#2D3582" d="M273.15,1.7c-0.455-0.436-0.911-0.873-1.366-1.309
		c0.597,0.014,1.194,0.028,1.792,0.043C273.602,0.929,273.459,1.352,273.15,1.7z"/>
	<path fill-rule="evenodd" clip-rule="evenodd" fill="#2D3582" d="M369.177,0.391c-0.456,0.438-0.913,0.876-1.37,1.316
		c-0.31-0.351-0.451-0.776-0.425-1.273C367.98,0.419,368.579,0.405,369.177,0.391z"/>
	<path fill-rule="evenodd" clip-rule="evenodd" fill="#2D3077" d="M367.807,478.551c-0.128-4.738-0.363-9.48-0.365-14.219
		c-0.028-45.435-0.027-90.869,0.012-136.302c0.003-2.534-0.557-5.176,0.529-7.582c1.793-0.707,2.784,0.853,3.941,1.688
		c70.578,50.961,141.139,101.949,211.698,152.948c1.05,0.757,2.026,1.646,3.037,2.472c-0.379,0.77-0.754,1.536-1.133,2.307
		c-11.014,0.087-22.023,0.241-33.037,0.247c-58.616,0.025-117.231,0.015-175.847,0c-2.49,0-4.98-0.16-7.47-0.25
		C368.718,479.424,368.261,478.989,367.807,478.551z"/>
	<path fill-rule="evenodd" clip-rule="evenodd" fill="#2D3077" d="M53.665,478.227c25.526-18.587,51.018-37.238,76.586-55.75
		c46.26-33.496,92.566-66.91,138.855-100.352c1.022-0.738,2.079-1.413,2.952-2.005c1.992,0.806,1.44,2.479,1.44,3.734
		c0.032,50.629,0.028,101.259,0.009,151.891c0,0.932-0.233,1.866-0.358,2.8c-0.457,0.438-0.915,0.877-1.371,1.314
		c-10.182,0.09-20.362,0.248-30.543,0.25c-59.451,0.025-118.901,0.017-178.352,0c-2.49,0-4.98-0.16-7.47-0.25
		C54.831,479.315,54.248,478.771,53.665,478.227z"/>
	<path fill-rule="evenodd" clip-rule="evenodd" fill="#2D3582" d="M585.526,479.862c0.379-0.771,0.754-1.537,1.133-2.307
		c0.918,0.749,1.839,1.503,2.756,2.254C588.119,479.826,586.822,479.846,585.526,479.862z"/>
	<path fill-rule="evenodd" clip-rule="evenodd" fill="#2D3582" d="M53.665,478.227c0.583,0.544,1.166,1.089,1.749,1.633
		c-1.291-0.017-2.582-0.033-3.873-0.054C52.249,479.282,52.957,478.754,53.665,478.227z"/>
	<path fill-rule="evenodd" clip-rule="evenodd" fill="#2D3582" d="M271.779,479.859c0.457-0.438,0.914-0.876,1.371-1.314
		c0.31,0.349,0.452,0.772,0.425,1.271C272.976,479.832,272.377,479.846,271.779,479.859z"/>
	<path fill-rule="evenodd" clip-rule="evenodd" fill="#2D3582" d="M367.807,478.551c0.454,0.438,0.911,0.873,1.366,1.309
		c-0.597-0.014-1.193-0.027-1.79-0.044C367.355,479.321,367.497,478.899,367.807,478.551z"/>
</g>
</svg>
